<?xml version="1.0" encoding="UTF-8" standalone="no"?>
<!DOCTYPE svg PUBLIC "-//W3C//DTD SVG 1.1//EN" "http://www.w3.org/Graphics/SVG/1.1/DTD/svg11.dtd">
<svg width="100%" height="100%" viewBox="0 0 265 89" version="1.1" xmlns="http://www.w3.org/2000/svg" xmlns:xlink="http://www.w3.org/1999/xlink" xml:space="preserve" xmlns:serif="http://www.serif.com/" style="fill-rule:evenodd;clip-rule:evenodd;stroke-linejoin:round;stroke-miterlimit:2;">
    <g id="g5616" transform="matrix(1.25,0,0,-1.25,-258.81237,588.47087)">
        <path id="path5748" d="M214.47,428.135C213.531,427.384 213.061,426.371 213.061,425.098C213.061,423.824 213.572,422.823 214.595,422.093C215.617,421.362 217.047,420.997 218.885,420.997C222.35,420.997 225.188,421.936 227.401,423.815L227.401,430.577L218.259,429.575C216.671,429.366 215.409,428.886 214.47,428.135M238.547,420.997L238.547,417.239C236.919,416.447 235.123,416.05 233.162,416.05C231.199,416.05 229.79,416.426 228.935,417.177C228.079,417.928 227.589,419.013 227.463,420.433C225.167,417.51 222.151,416.05 218.415,416.05C214.679,416.05 211.85,416.801 209.93,418.304C208.01,419.807 207.05,421.914 207.05,424.629C207.05,429.846 210.682,432.852 217.946,433.646L227.401,434.648L227.401,436.464C227.401,438.884 226.9,440.721 225.898,441.974C224.897,443.226 223.309,443.853 221.139,443.853C217.131,443.853 213.875,443.414 211.37,442.537L210.118,442.099L208.991,446.107C210.159,446.774 211.934,447.39 214.314,447.954C216.694,448.518 218.906,448.8 220.951,448.8C225.418,448.8 228.591,447.912 230.469,446.138C232.348,444.364 233.287,441.869 233.287,438.655L233.287,420.997L238.547,420.997Z" style="fill:white;fill-rule:nonzero;"/>
        <path id="path5752" d="M258.998,416.738L242.404,416.738L242.404,419.43L247.664,421.498L247.664,442.976L242.78,442.976L242.78,446.733L247.664,448.738L247.664,452.493C247.664,456.626 248.718,459.767 250.826,461.918C252.934,464.067 255.908,465.142 259.75,465.142C261.253,465.142 262.64,464.924 263.914,464.486C265.186,464.048 266.074,463.598 266.575,463.139L267.39,462.45L265.698,459.195C264.529,459.861 262.787,460.197 260.47,460.197C258.153,460.197 256.44,459.518 255.335,458.161C254.228,456.803 253.676,454.331 253.676,450.74L253.676,448.048L263.757,448.048L263.757,442.976L253.676,442.976L253.676,421.498L258.998,419.43L258.998,416.738Z" style="fill:white;fill-rule:nonzero;"/>
        <path id="path5756" d="M303.852,420.997L303.852,417.24C302.224,416.447 300.386,416.05 298.341,416.05C296.295,416.05 294.876,416.478 294.083,417.333C293.29,418.189 292.831,419.452 292.706,421.122C292.163,420.496 291.537,419.87 290.828,419.244C290.117,418.617 288.938,417.929 287.29,417.177C285.64,416.426 283.917,416.05 282.123,416.05C278.867,416.05 276.425,416.958 274.797,418.774C273.168,420.59 272.355,423.063 272.355,426.194L272.355,443.853L267.095,443.853L267.095,447.61C268.723,448.402 270.611,448.8 272.762,448.8C274.912,448.8 276.363,448.288 277.114,447.266C277.866,446.242 278.241,444.687 278.241,442.601L278.241,428.386C278.241,425.922 278.648,424.086 279.462,422.875C280.276,421.664 281.748,421.059 283.876,421.059C286.005,421.059 287.822,421.466 289.325,422.281C290.828,423.095 291.955,423.94 292.706,424.816L292.706,443.853L287.446,443.853L287.446,447.61C289.074,448.402 290.962,448.8 293.113,448.8C295.262,448.8 296.713,448.288 297.465,447.266C298.216,446.242 298.592,444.687 298.592,442.601L298.592,420.997L303.852,420.997Z" style="fill:white;fill-rule:nonzero;"/>
        <path id="path5760" d="M321.961,421.059C325.343,421.059 327.982,422.061 329.882,424.065C331.781,426.068 332.732,428.865 332.732,432.455C332.732,436.045 331.813,438.852 329.977,440.878C328.139,442.902 326.177,443.915 324.09,443.915C320.458,443.915 317.744,442.766 315.949,440.471L315.949,422.186C318.287,421.434 320.291,421.059 321.961,421.059M321.209,399.768L304.74,399.768L304.74,402.461L310.064,404.527L310.064,444.103L304.804,444.103L304.804,447.547C306.432,448.339 308.216,448.737 310.157,448.737C312.099,448.737 313.485,448.381 314.321,447.672C315.156,446.962 315.657,445.919 315.824,444.541C317.869,447.379 320.917,448.799 324.967,448.799C328.264,448.799 331.312,447.672 334.109,445.418C335.527,444.248 336.666,442.589 337.522,440.439C338.377,438.289 338.806,435.795 338.806,432.956C338.806,430.117 338.325,427.581 337.365,425.349C336.404,423.115 335.111,421.351 333.482,420.057C330.185,417.427 326.344,416.112 321.961,416.112C320.208,416.112 318.204,416.405 315.949,416.989L315.949,404.527L321.209,402.461L321.209,399.768Z" style="fill:white;fill-rule:nonzero;"/>
        <path id="path5764" d="M359.487,414.835L371.102,408.13L371.102,425.73L356.778,417.461C357.45,416.377 358.382,415.473 359.487,414.835" style="fill:white;fill-rule:nonzero;"/>
        <path id="path5768" d="M370.858,426.151L355.616,434.951L355.616,421.54C355.616,420.264 355.933,419.004 356.534,417.881L370.858,426.151Z" style="fill:white;fill-rule:nonzero;"/>
        <path id="path5772" d="M371.101,426.572L371.101,444.173L357.044,436.058L355.859,435.373L371.101,426.572Z" style="fill:white;fill-rule:nonzero;"/>
        <path id="path5776" d="M387.074,416.508L371.832,407.708L383.445,401.002C384.55,400.364 385.799,400.009 387.073,399.969L387.073,416.508Z" style="fill:white;fill-rule:nonzero;"/>
        <path id="path5780" d="M356.534,452.864C355.932,451.741 355.615,450.482 355.615,449.205L355.615,435.794L370.858,444.594L356.534,452.864Z" style="fill:white;fill-rule:nonzero;"/>
        <path id="path5784" d="M387.803,416.93L398.887,410.53L403.045,408.13L403.045,425.73L387.803,416.93Z" style="fill:white;fill-rule:nonzero;"/>
        <path id="path5788" d="M418.099,417.882C418.701,419.005 419.018,420.264 419.018,421.541L419.018,434.952L403.776,426.151L418.099,417.882Z" style="fill:white;fill-rule:nonzero;"/>
        <path id="path5792" d="M417.856,417.46L403.533,425.73L403.533,408.129L415.147,414.834C416.252,415.473 417.185,416.377 417.856,417.46" style="fill:white;fill-rule:nonzero;"/>
        <path id="path5796" d="M403.532,426.572L418.774,435.373L417.589,436.058L403.532,444.173L403.532,426.572Z" style="fill:white;fill-rule:nonzero;"/>
        <path id="path5800" d="M387.56,416.508L387.56,399.969C388.834,400.009 390.083,400.364 391.188,401.002L402.802,407.708L387.56,416.508Z" style="fill:white;fill-rule:nonzero;"/>
        <path id="path5804" d="M386.83,453.816L375.746,460.216L371.588,462.616L371.588,445.016L386.83,453.816Z" style="fill:white;fill-rule:nonzero;"/>
        <path id="path5816" d="M387.803,453.816L403.045,445.016L403.045,462.616L398.887,460.216L387.803,453.816Z" style="fill:white;fill-rule:nonzero;"/>
        <path id="path5820" d="M356.777,453.285L371.101,445.015L371.101,462.616L359.486,455.911C358.381,455.272 357.45,454.368 356.777,453.285" style="fill:white;fill-rule:nonzero;"/>
        <path id="path5824" d="M403.776,444.594L419.018,435.794L419.018,449.205C419.018,450.481 418.701,451.741 418.099,452.864L403.776,444.594Z" style="fill:white;fill-rule:nonzero;"/>
        <path id="path5828" d="M415.147,455.911L403.532,462.616L403.532,445.016L417.856,453.285C417.184,454.368 416.252,455.273 415.147,455.911" style="fill:white;fill-rule:nonzero;"/>
        <path id="path5832" d="M387.074,430.762C387.074,432.038 386.757,433.297 386.155,434.421L371.832,426.151L387.074,417.351L387.074,430.762Z" style="fill:white;fill-rule:nonzero;"/>
        <path id="path5836" d="M385.911,434.842C385.239,435.925 384.307,436.829 383.202,437.467L371.587,444.173L371.587,426.572L385.911,434.842Z" style="fill:white;fill-rule:nonzero;"/>
        <path id="path5840" d="M387.56,454.237L402.802,463.037L391.188,469.744C390.082,470.381 388.833,470.736 387.56,470.776L387.56,454.237Z" style="fill:white;fill-rule:nonzero;"/>
        <path id="path5844" d="M371.831,463.038L387.073,454.238L387.073,470.777C385.8,470.737 384.551,470.382 383.446,469.744L371.831,463.038Z" style="fill:white;fill-rule:nonzero;"/>
        <path id="path5848" d="M386.83,416.93L371.588,425.73L371.588,408.13L386.83,416.93Z" style="fill:white;fill-rule:nonzero;"/>
    </g>
</svg>
